<?xml version='1.0' encoding='UTF-8'?>
<svg contentScriptType="text/ecmascript" xmlns:xi="http://www.w3.org/2001/XInclude" width="560" xmlns:xlink="http://www.w3.org/1999/xlink" zoomAndPan="magnify" contentStyleType="text/css" viewBox="0 0 560 330" height="330" preserveAspectRatio="none" xmlns="http://www.w3.org/2000/svg" version="1.0">
  <defs>
    <filter xlink:actuate="onLoad" xlink:type="simple" id="blur" xlink:show="other" xmlns:xlink="http://www.w3.org/1999/xlink">
      <feGaussianBlur result="blur" stdDeviation="3" in="SourceGraphic"/>
    </filter>
    <radialGradient xmlns:xlink="http://www.w3.org/1999/xlink" xlink:type="simple" xlink:actuate="onLoad" id="grad1" xlink:show="other" fx="30%" fy="30%">
      <stop stop-color="#fff" offset="0%"/>
      <stop stop-color="#99abc6" offset="100%"/>
    </radialGradient>
  </defs>
  <rect fill="#ffffff" x="0" width="560" height="330" y="0" stroke="#ffffff"/>
  <rect x="23" y="23" fill="dimgray" width="120" filter="url(#blur)" height="40" stroke="dimgray"/>
  <rect fill="#ffc800" x="20" width="120" height="40" y="20" stroke="#000000"/>
  <text fill="#000000" x="57" y="38" style="font-size:8;font-family:Helvetica" color="black">«interface»</text>
  <text fill="#000000" x="43" y="48" style="font-size:8;font-family:Helvetica;font-weight:bold" color="black">Comparable&lt;E&gt;</text>
  <rect x="223" y="28" fill="dimgray" width="120" filter="url(#blur)" height="30" stroke="dimgray"/>
  <rect fill="#ffffe0" x="220" width="120" height="30" y="25" stroke="#000000"/>
  <text fill="#000000" x="265" y="43" style="font-size:8;font-family:Helvetica;font-weight:bold" color="black">Object</text>
  <rect x="423" y="23" fill="dimgray" width="120" filter="url(#blur)" height="40" stroke="dimgray"/>
  <rect fill="#ffc800" x="420" width="120" height="40" y="20" stroke="#000000"/>
  <text fill="#000000" x="457" y="38" style="font-size:8;font-family:Helvetica" color="black">«interface»</text>
  <text fill="#000000" x="453" y="48" style="font-size:8;font-family:Helvetica;font-weight:bold" color="black">Serializable</text>
  <rect x="194" y="113" fill="dimgray" width="120" filter="url(#blur)" height="30" stroke="dimgray"/>
  <rect fill="#ffffe0" x="191" width="120" height="30" y="110" stroke="#000000"/>
  <text fill="#000000" x="208" y="128" style="font-size:8;font-family:Helvetica;font-weight:bold" color="black">Enum&lt;ErrorCode&gt;</text>
  <rect x="256" y="108" fill="dimgray" width="116" filter="url(#blur)" height="10" stroke="dimgray"/>
  <rect x="253" y="105" fill="#ffffe0" width="116" stroke-dasharray="5 3" height="10" stroke="#000000"/>
  <text fill="#000000" x="263" y="113" style="font-size:8;font-family:Helvetica" color="black">E: E extends Enum&lt;E&gt;</text>
  <rect x="183" y="183" fill="dimgray" width="200" filter="url(#blur)" height="130" stroke="dimgray"/>
  <rect fill="#ffffe0" x="180" width="200" height="130" y="180" stroke="#000000"/>
  <text fill="#000000" x="257" y="198" style="font-size:8;font-family:Helvetica;font-weight:bold" color="black">ErrorCode</text>
  <line y2="207" stroke-width="1" x1="180" x2="380" stroke="black" y1="207"/>
  <text fill="#000000" x="190" y="222" style="font-size:8;font-family:Helvetica" color="black">+ SEVERITY_FAILURE: String</text>
  <text fill="#000000" x="190" y="232" style="font-size:8;font-family:Helvetica" color="black">+ SEVERITY_WARNING: String</text>
  <line y2="241" stroke-width="1" x1="180" x2="380" stroke="black" y1="241"/>
  <text fill="#000000" x="190" y="256" style="font-size:8;font-family:Helvetica" color="black">+ values(): ErrorCode[]</text>
  <text fill="#000000" x="190" y="266" style="font-size:8;font-family:Helvetica" color="black">+ valueOf(name: String): ErrorCode</text>
  <text fill="#000000" x="190" y="276" style="font-size:8;font-family:Helvetica" color="black">+ findBy(errorCodeName: String): ErrorCode</text>
  <text fill="#000000" x="190" y="286" style="font-size:8;font-family:Helvetica" color="black">+ getErrorCodeName(): String</text>
  <text fill="#000000" x="190" y="296" style="font-size:8;font-family:Helvetica" color="black">+ toString(): String</text>
  <polygon fill="none" points="280,55 285,65 275,65 275,65 " stroke="black"/>
  <polyline fill="none" points="280,105 280,88 280,88 280,65 " stroke="#000000"/>
  <polygon fill="none" points="80,60 85,70 75,70 75,70 " stroke="black"/>
  <polyline fill="none" stroke-dasharray="5, 5" points="270,100 270,80 80,80 80,70 " stroke="#000000"/>
  <polygon fill="none" points="480,60 485,70 475,70 475,70 " stroke="black"/>
  <polyline fill="none" stroke-dasharray="5, 5" points="290,100 290,80 480,80 480,70 " stroke="#000000"/>
  <polygon fill="none" points="280,140 285,150 275,150 275,150 " stroke="black"/>
  <polyline fill="none" points="280,180 280,166 280,166 280,150 " stroke="#000000"/>
</svg>
