<?xml version='1.0' encoding='UTF-8'?>
<svg contentScriptType="text/ecmascript" xmlns:xi="http://www.w3.org/2001/XInclude" width="478" xmlns:xlink="http://www.w3.org/1999/xlink" zoomAndPan="magnify" contentStyleType="text/css" viewBox="0 0 478 455" height="455" preserveAspectRatio="none" xmlns="http://www.w3.org/2000/svg" version="1.0">
  <defs>
    <filter xlink:actuate="onLoad" xlink:type="simple" id="blur" xlink:show="other" xmlns:xlink="http://www.w3.org/1999/xlink">
      <feGaussianBlur result="blur" stdDeviation="3" in="SourceGraphic"/>
    </filter>
    <radialGradient xmlns:xlink="http://www.w3.org/1999/xlink" xlink:type="simple" xlink:actuate="onLoad" id="grad1" xlink:show="other" fx="30%" fy="30%">
      <stop stop-color="#fff" offset="0%"/>
      <stop stop-color="#99abc6" offset="100%"/>
    </radialGradient>
  </defs>
  <rect fill="#ffffff" x="0" width="478" height="455" y="0" stroke="#ffffff"/>
  <rect x="23" y="23" fill="dimgray" width="120" filter="url(#blur)" height="40" stroke="dimgray"/>
  <rect fill="#ffc800" x="20" width="120" height="40" y="20" stroke="#000000"/>
  <text fill="#000000" x="57" y="38" style="font-size:8;font-family:Helvetica" color="black">«interface»</text>
  <text fill="#000000" x="53" y="48" style="font-size:8;font-family:Helvetica;font-weight:bold" color="black">Serializable</text>
  <rect x="262" y="28" fill="dimgray" width="120" filter="url(#blur)" height="30" stroke="dimgray"/>
  <rect fill="#ffffe0" x="259" width="120" height="30" y="25" stroke="#000000"/>
  <text fill="#000000" x="304" y="43" style="font-size:8;font-family:Helvetica;font-weight:bold" color="black">Object</text>
  <rect x="262" y="103" fill="dimgray" width="120" filter="url(#blur)" height="30" stroke="dimgray"/>
  <rect fill="#ffffe0" x="259" width="120" height="30" y="100" stroke="#000000"/>
  <text fill="#000000" x="295" y="118" style="font-size:8;font-family:Helvetica;font-weight:bold" color="black">Throwable</text>
  <rect x="262" y="173" fill="dimgray" width="120" filter="url(#blur)" height="30" stroke="dimgray"/>
  <rect fill="#ffffe0" x="259" width="120" height="30" y="170" stroke="#000000"/>
  <text fill="#000000" x="296" y="188" style="font-size:8;font-family:Helvetica;font-weight:bold" color="black">Exception</text>
  <rect x="239" y="243" fill="dimgray" width="165" filter="url(#blur)" height="30" stroke="dimgray"/>
  <rect fill="#ffffe0" x="236" width="165" height="30" y="240" stroke="#000000"/>
  <text fill="#000000" x="246" y="258" style="font-size:8;font-family:Helvetica;font-weight:bold" color="black">MessagingProcessingException</text>
  <rect x="183" y="313" fill="dimgray" width="278" filter="url(#blur)" height="125" stroke="dimgray"/>
  <rect fill="#ffffe0" x="180" width="278" height="125" y="310" stroke="#000000"/>
  <text fill="#000000" x="261" y="328" style="font-size:8;font-family:Helvetica;font-weight:bold" color="black">TransformationException</text>
  <line y2="337" stroke-width="1" x1="180" x2="458" stroke="black" y1="337"/>
  <text fill="#000000" x="190" y="352" style="font-size:8;font-family:Helvetica" color="black">+ TransformationException()</text>
  <text fill="#000000" x="190" y="362" style="font-size:8;font-family:Helvetica" color="black">+ TransformationException(message: String)</text>
  <text fill="#000000" x="190" y="372" style="font-size:8;font-family:Helvetica" color="black">+ TransformationException(message: String, cause: Throwable)</text>
  <text fill="#000000" x="190" y="382" style="font-size:8;font-family:Helvetica" color="black">+ TransformationException(cause: Throwable)</text>
  <text fill="#000000" x="190" y="392" style="font-size:8;font-family:Helvetica" color="black">+ TransformationException(message: String,</text>
  <text fill="#000000" x="303" y="402" style="font-size:8;font-family:Helvetica" color="black">cause: Throwable,</text>
  <text fill="#000000" x="303" y="412" style="font-size:8;font-family:Helvetica" color="black">enableSuppression: boolean,</text>
  <text fill="#000000" x="303" y="422" style="font-size:8;font-family:Helvetica" color="black">writableStackTrace: boolean)</text>
  <polygon fill="none" points="319,55 324,65 314,65 314,65 " stroke="black"/>
  <polyline fill="none" points="319,100 319,85 319,85 319,65 " stroke="#000000"/>
  <polygon fill="none" points="80,60 85,70 75,70 75,70 " stroke="black"/>
  <polyline fill="none" stroke-dasharray="5, 5" points="309,100 309,80 80,80 80,70 " stroke="#000000"/>
  <polygon fill="none" points="319,130 324,140 314,140 314,140 " stroke="black"/>
  <polyline fill="none" points="319,170 319,156 319,156 319,140 " stroke="#000000"/>
  <polygon fill="none" points="319,200 324,210 314,210 314,210 " stroke="black"/>
  <polyline fill="none" points="319,240 319,226 319,226 319,210 " stroke="#000000"/>
  <polygon fill="none" points="319,270 324,280 314,280 314,280 " stroke="black"/>
  <polyline fill="none" points="319,310 319,296 319,296 319,280 " stroke="#000000"/>
</svg>
