<?xml version="1.0" encoding="iso-8859-1"?>
<!-- Generator: Adobe Illustrator 21.0.2, SVG Export Plug-In . SVG Version: 6.00 Build 0)  -->
<svg version="1.1" id="Layer_1" xmlns="http://www.w3.org/2000/svg" xmlns:xlink="http://www.w3.org/1999/xlink" x="0px" y="0px"
	 viewBox="0 0 40 40" style="enable-background:new 0 0 40 40;" xml:space="preserve">
<polygon style="fill:#FFFFFF;" points="3.5,37.5 3.5,2.5 21.793,2.5 30.5,11.207 30.5,37.5 "/>
<path style="fill:#4788C7;" d="M21.586,3L30,11.414V37H4V3H21.586 M22,2H3v36h28V11L22,2L22,2z"/>
<polygon style="fill:#DFF0FE;" points="21.5,11.5 21.5,2.5 21.793,2.5 30.5,11.207 30.5,11.5 "/>
<path style="fill:#4788C7;" d="M22,3.414L29.586,11H22V3.414 M22,2h-1v10h10v-1L22,2L22,2z"/>
<path style="fill:#B6DCFE;" d="M7,9h4V7H7V9z M14,7v2h6V7H14z"/>
<path style="fill:#B6DCFE;" d="M7,13h4v-2H7V13z M14,13h6v-2h-6V13z"/>
<path style="fill:#B6DCFE;" d="M7,31h4v-2H7V31z M23,29v2h4v-2H23z M14,31h6v-2h-6V31z"/>
<path style="fill:#B6DCFE;" d="M7,35h4v-2H7V35z M23,33v2h4v-2H23z M14,35h6v-2h-6V35z"/>
<rect x="4" y="14" style="fill:#98CCFD;" width="26" height="14"/>
<polygon style="fill:#98CCFD;" points="31,28 26,28 30,19 31,19 "/>
<path style="fill:#FFFFFF;" d="M11.762,18.402v0.541h-1.8v-0.46c0-0.83-0.77-1.002-1.112-1.002c-0.447,0-1.111,0.108-1.111,1.124
	v4.926c0,0.281,0.01,0.989,1.094,0.989c1.022,0,1.129-0.784,1.129-0.974v-0.474h1.799v0.596c0,0.792-0.797,2.233-2.858,2.233
	c-0.342,0-2.964-0.036-2.964-2.274V18.32c0-0.986,0.839-2.219,2.929-2.219C11.408,16.1,11.762,17.865,11.762,18.402z M17.676,16.1
	c-2.996,0-3.087,2.278-3.087,2.639c0,1.872,1.182,2.234,1.958,2.478l1.288,0.405c0.803,0.284,1.04,0.337,1.04,1.461
	c0,1.166-0.339,1.435-1.305,1.435c-1.03,0-1.27-0.57-1.27-0.989v-0.432h-1.799v0.514c0,1.671,1.903,2.287,3.069,2.287
	c2.416,0,3.105-1.322,3.105-2.829c0-1.936-0.842-2.29-1.887-2.639l-1.376-0.42c-1.042-0.317-0.979-0.674-0.996-0.805
	s-0.027-0.291-0.027-0.48c0-1.257,0.97-1.246,1.217-1.246c1.118,0,1.27,0.849,1.27,1.165v0.31h1.799V18.28
	C20.674,17.548,19.883,16.1,17.676,16.1z M27.004,16.181l-1.447,6.729h-0.035l-1.429-6.729h-1.904l2.557,9.638h1.588l2.575-9.638
	H27.004z"/>
<polygon style="fill:#FFFFFF;" points="30,27 30,37 26,37 26,38 31,38 31,27 "/>
<path style="fill:#4788C7;" d="M25.5,37h1c0.275,0,0.5,0.225,0.5,0.5l0,0c0,0.275-0.225,0.5-0.5,0.5h-1c-0.275,0-0.5-0.225-0.5-0.5
	l0,0C25,37.225,25.225,37,25.5,37z"/>
<path style="fill:#4788C7;" d="M30.5,17L30.5,17c0.275,0,0.5,0.225,0.5,0.5v2c0,0.275-0.225,0.5-0.5,0.5l0,0
	c-0.275,0-0.5-0.225-0.5-0.5v-2C30,17.225,30.225,17,30.5,17z"/>
<polygon style="fill:#98CCFD;" points="25.041,30.5 29.5,30.5 29.5,22.5 34.5,22.5 34.5,30.5 38.959,30.5 32,39.199 "/>
<path style="fill:#4788C7;" d="M34,23v7v1h1h2.919L32,38.399L26.081,31H29h1v-1v-7H34 M35,22h-6v8h-5l8,10l8-10h-5V22L35,22z"/>
</svg>
