<?xml version='1.0' encoding='UTF-8'?>
<svg contentScriptType="text/ecmascript" xmlns:xi="http://www.w3.org/2001/XInclude" width="501" xmlns:xlink="http://www.w3.org/1999/xlink" zoomAndPan="magnify" contentStyleType="text/css" viewBox="0 0 501 405" height="405" preserveAspectRatio="none" xmlns="http://www.w3.org/2000/svg" version="1.0">
  <defs>
    <filter xlink:actuate="onLoad" xlink:type="simple" id="blur" xlink:show="other" xmlns:xlink="http://www.w3.org/1999/xlink">
      <feGaussianBlur result="blur" stdDeviation="3" in="SourceGraphic"/>
    </filter>
    <radialGradient xmlns:xlink="http://www.w3.org/1999/xlink" xlink:type="simple" xlink:actuate="onLoad" id="grad1" xlink:show="other" fx="30%" fy="30%">
      <stop stop-color="#fff" offset="0%"/>
      <stop stop-color="#99abc6" offset="100%"/>
    </radialGradient>
  </defs>
  <rect fill="#ffffff" x="0" width="501" height="405" y="0" stroke="#ffffff"/>
  <rect x="23" y="23" fill="dimgray" width="120" filter="url(#blur)" height="40" stroke="dimgray"/>
  <rect fill="#ffc800" x="20" width="120" height="40" y="20" stroke="#000000"/>
  <text fill="#000000" x="57" y="38" style="font-size:8;font-family:Helvetica" color="black">«interface»</text>
  <text fill="#000000" x="53" y="48" style="font-size:8;font-family:Helvetica;font-weight:bold" color="black">Serializable</text>
  <rect x="273" y="28" fill="dimgray" width="120" filter="url(#blur)" height="30" stroke="dimgray"/>
  <rect fill="#ffffe0" x="270" width="120" height="30" y="25" stroke="#000000"/>
  <text fill="#000000" x="315" y="43" style="font-size:8;font-family:Helvetica;font-weight:bold" color="black">Object</text>
  <rect x="273" y="103" fill="dimgray" width="120" filter="url(#blur)" height="30" stroke="dimgray"/>
  <rect fill="#ffffe0" x="270" width="120" height="30" y="100" stroke="#000000"/>
  <text fill="#000000" x="306" y="118" style="font-size:8;font-family:Helvetica;font-weight:bold" color="black">Throwable</text>
  <rect x="273" y="173" fill="dimgray" width="120" filter="url(#blur)" height="30" stroke="dimgray"/>
  <rect fill="#ffffe0" x="270" width="120" height="30" y="170" stroke="#000000"/>
  <text fill="#000000" x="307" y="188" style="font-size:8;font-family:Helvetica;font-weight:bold" color="black">Exception</text>
  <rect x="183" y="243" fill="dimgray" width="301" filter="url(#blur)" height="145" stroke="dimgray"/>
  <rect fill="#ffffe0" x="180" width="301" height="145" y="240" stroke="#000000"/>
  <text fill="#000000" x="258" y="258" style="font-size:8;font-family:Helvetica;font-weight:bold" color="black">MessagingProcessingException</text>
  <line y2="267" stroke-width="1" x1="180" x2="481" stroke="black" y1="267"/>
  <text fill="#000000" x="190" y="282" style="font-size:8;font-family:Helvetica" color="black">+ MessagingProcessingException(message: String)</text>
  <text fill="#000000" x="190" y="292" style="font-size:8;font-family:Helvetica" color="black">+ MessagingProcessingException(message: String, cause: Throwable)</text>
  <text fill="#000000" x="190" y="302" style="font-size:8;font-family:Helvetica" color="black">+ MessagingProcessingException(message: String,</text>
  <text fill="#000000" x="326" y="312" style="font-size:8;font-family:Helvetica" color="black">cause: Throwable,</text>
  <text fill="#000000" x="326" y="322" style="font-size:8;font-family:Helvetica" color="black">enableSuppression: boolean,</text>
  <text fill="#000000" x="326" y="332" style="font-size:8;font-family:Helvetica" color="black">writableStackTrace: boolean)</text>
  <text fill="#000000" x="190" y="342" style="font-size:8;font-family:Helvetica" color="black">+ MessagingProcessingException()</text>
  <text fill="#000000" x="190" y="352" style="font-size:8;font-family:Helvetica" color="black">+ MessagingProcessingException(cause: Throwable)</text>
  <text fill="#000000" x="190" y="362" style="font-size:8;font-family:Helvetica" color="black">+ getEbms3ErrorCode(): ErrorCode</text>
  <text fill="#000000" x="190" y="372" style="font-size:8;font-family:Helvetica" color="black">+ setEbms3ErrorCode(ebms3ErrorCode: ErrorCode): void</text>
  <polygon fill="none" points="330,55 335,65 325,65 325,65 " stroke="black"/>
  <polyline fill="none" points="330,100 330,85 330,85 330,65 " stroke="#000000"/>
  <polygon fill="none" points="80,60 85,70 75,70 75,70 " stroke="black"/>
  <polyline fill="none" stroke-dasharray="5, 5" points="320,100 320,80 80,80 80,70 " stroke="#000000"/>
  <polygon fill="none" points="330,130 335,140 325,140 325,140 " stroke="black"/>
  <polyline fill="none" points="330,170 330,156 330,156 330,140 " stroke="#000000"/>
  <polygon fill="none" points="330,200 335,210 325,210 325,210 " stroke="black"/>
  <polyline fill="none" points="330,240 330,226 330,226 330,210 " stroke="#000000"/>
</svg>
