<?xml version='1.0' encoding='UTF-8'?>
<svg contentScriptType="text/ecmascript" xmlns:xi="http://www.w3.org/2001/XInclude" width="330" xmlns:xlink="http://www.w3.org/1999/xlink" zoomAndPan="magnify" contentStyleType="text/css" viewBox="0 0 330 275" height="275" preserveAspectRatio="none" xmlns="http://www.w3.org/2000/svg" version="1.0">
  <defs>
    <filter xlink:actuate="onLoad" xlink:type="simple" id="blur" xlink:show="other" xmlns:xlink="http://www.w3.org/1999/xlink">
      <feGaussianBlur result="blur" stdDeviation="3" in="SourceGraphic"/>
    </filter>
    <radialGradient xmlns:xlink="http://www.w3.org/1999/xlink" xlink:type="simple" xlink:actuate="onLoad" id="grad1" xlink:show="other" fx="30%" fy="30%">
      <stop stop-color="#fff" offset="0%"/>
      <stop stop-color="#99abc6" offset="100%"/>
    </radialGradient>
  </defs>
  <rect fill="#ffffff" x="0" width="330" height="275" y="0" stroke="#ffffff"/>
  <rect x="108" y="23" fill="dimgray" width="120" filter="url(#blur)" height="30" stroke="dimgray"/>
  <rect fill="#ffffe0" x="105" width="120" height="30" y="20" stroke="#000000"/>
  <text fill="#000000" x="150" y="38" style="font-size:8;font-family:Helvetica;font-weight:bold" color="black">Object</text>
  <rect x="29" y="113" fill="dimgray" width="219" filter="url(#blur)" height="30" stroke="dimgray"/>
  <rect fill="#ffffe0" x="26" width="219" height="30" y="110" stroke="#000000"/>
  <text fill="#000000" x="36" y="128" style="font-size:8;font-family:Helvetica;font-weight:bold" color="black">XmlAdapter&lt;XMLGregorianCalendar, Date&gt;</text>
  <rect x="190" y="103" fill="dimgray" width="116" filter="url(#blur)" height="20" stroke="dimgray"/>
  <rect x="187" y="100" fill="#ffffe0" width="116" stroke-dasharray="5 3" height="20" stroke="#000000"/>
  <text fill="#000000" x="197" y="108" style="font-size:8;font-family:Helvetica" color="black">ValueType: ValueType</text>
  <text fill="#000000" x="197" y="116" style="font-size:8;font-family:Helvetica" color="black">BoundType: BoundType</text>
  <rect x="23" y="183" fill="dimgray" width="290" filter="url(#blur)" height="75" stroke="dimgray"/>
  <rect fill="#ffffe0" x="20" width="290" height="75" y="180" stroke="#000000"/>
  <text fill="#000000" x="94" y="198" style="font-size:8;font-family:Helvetica;font-weight:bold" color="black">XMLGregorianCalendarAdapter</text>
  <line y2="207" stroke-width="1" x1="20" x2="310" stroke="black" y1="207"/>
  <text fill="#000000" x="30" y="222" style="font-size:8;font-family:Helvetica" color="black">+ XMLGregorianCalendarAdapter()</text>
  <text fill="#000000" x="30" y="232" style="font-size:8;font-family:Helvetica" color="black">+ unmarshal(xmlGregorianCalendar: XMLGregorianCalendar): Date</text>
  <text fill="#000000" x="30" y="242" style="font-size:8;font-family:Helvetica" color="black">+ marshal(date: Date): XMLGregorianCalendar</text>
  <polygon fill="none" points="165,50 170,60 160,60 160,60 " stroke="black"/>
  <polyline fill="none" points="165,110 165,90 165,90 165,60 " stroke="#000000"/>
  <polygon fill="none" points="165,140 170,150 160,150 160,150 " stroke="black"/>
  <polyline fill="none" points="165,180 165,166 165,166 165,150 " stroke="#000000"/>
</svg>
