<?xml version='1.0' encoding='UTF-8'?>
<svg contentScriptType="text/ecmascript" xmlns:xi="http://www.w3.org/2001/XInclude" width="482" xmlns:xlink="http://www.w3.org/1999/xlink" zoomAndPan="magnify" contentStyleType="text/css" viewBox="0 0 482 455" height="455" preserveAspectRatio="none" xmlns="http://www.w3.org/2000/svg" version="1.0">
  <defs>
    <filter xlink:actuate="onLoad" xlink:type="simple" id="blur" xlink:show="other" xmlns:xlink="http://www.w3.org/1999/xlink">
      <feGaussianBlur result="blur" stdDeviation="3" in="SourceGraphic"/>
    </filter>
    <radialGradient xmlns:xlink="http://www.w3.org/1999/xlink" xlink:type="simple" xlink:actuate="onLoad" id="grad1" xlink:show="other" fx="30%" fy="30%">
      <stop stop-color="#fff" offset="0%"/>
      <stop stop-color="#99abc6" offset="100%"/>
    </radialGradient>
  </defs>
  <rect fill="#ffffff" x="0" width="482" height="455" y="0" stroke="#ffffff"/>
  <rect x="23" y="23" fill="dimgray" width="120" filter="url(#blur)" height="40" stroke="dimgray"/>
  <rect fill="#ffc800" x="20" width="120" height="40" y="20" stroke="#000000"/>
  <text fill="#000000" x="57" y="38" style="font-size:8;font-family:Helvetica" color="black">«interface»</text>
  <text fill="#000000" x="53" y="48" style="font-size:8;font-family:Helvetica;font-weight:bold" color="black">Serializable</text>
  <rect x="264" y="28" fill="dimgray" width="120" filter="url(#blur)" height="30" stroke="dimgray"/>
  <rect fill="#ffffe0" x="261" width="120" height="30" y="25" stroke="#000000"/>
  <text fill="#000000" x="306" y="43" style="font-size:8;font-family:Helvetica;font-weight:bold" color="black">Object</text>
  <rect x="264" y="103" fill="dimgray" width="120" filter="url(#blur)" height="30" stroke="dimgray"/>
  <rect fill="#ffffe0" x="261" width="120" height="30" y="100" stroke="#000000"/>
  <text fill="#000000" x="297" y="118" style="font-size:8;font-family:Helvetica;font-weight:bold" color="black">Throwable</text>
  <rect x="264" y="173" fill="dimgray" width="120" filter="url(#blur)" height="30" stroke="dimgray"/>
  <rect fill="#ffffe0" x="261" width="120" height="30" y="170" stroke="#000000"/>
  <text fill="#000000" x="298" y="188" style="font-size:8;font-family:Helvetica;font-weight:bold" color="black">Exception</text>
  <rect x="241" y="243" fill="dimgray" width="165" filter="url(#blur)" height="30" stroke="dimgray"/>
  <rect fill="#ffffe0" x="238" width="165" height="30" y="240" stroke="#000000"/>
  <text fill="#000000" x="248" y="258" style="font-size:8;font-family:Helvetica;font-weight:bold" color="black">MessagingProcessingException</text>
  <rect x="183" y="313" fill="dimgray" width="282" filter="url(#blur)" height="125" stroke="dimgray"/>
  <rect fill="#ffffe0" x="180" width="282" height="125" y="310" stroke="#000000"/>
  <text fill="#000000" x="261" y="328" style="font-size:8;font-family:Helvetica;font-weight:bold" color="black">PModeMismatchException</text>
  <line y2="337" stroke-width="1" x1="180" x2="462" stroke="black" y1="337"/>
  <text fill="#000000" x="190" y="352" style="font-size:8;font-family:Helvetica" color="black">+ PModeMismatchException()</text>
  <text fill="#000000" x="190" y="362" style="font-size:8;font-family:Helvetica" color="black">+ PModeMismatchException(cause: Throwable)</text>
  <text fill="#000000" x="190" y="372" style="font-size:8;font-family:Helvetica" color="black">+ PModeMismatchException(message: String)</text>
  <text fill="#000000" x="190" y="382" style="font-size:8;font-family:Helvetica" color="black">+ PModeMismatchException(message: String, cause: Throwable)</text>
  <text fill="#000000" x="190" y="392" style="font-size:8;font-family:Helvetica" color="black">+ PModeMismatchException(message: String,</text>
  <text fill="#000000" x="307" y="402" style="font-size:8;font-family:Helvetica" color="black">cause: Throwable,</text>
  <text fill="#000000" x="307" y="412" style="font-size:8;font-family:Helvetica" color="black">enableSuppression: boolean,</text>
  <text fill="#000000" x="307" y="422" style="font-size:8;font-family:Helvetica" color="black">writableStackTrace: boolean)</text>
  <polygon fill="none" points="321,55 326,65 316,65 316,65 " stroke="black"/>
  <polyline fill="none" points="321,100 321,85 321,85 321,65 " stroke="#000000"/>
  <polygon fill="none" points="80,60 85,70 75,70 75,70 " stroke="black"/>
  <polyline fill="none" stroke-dasharray="5, 5" points="311,100 311,80 80,80 80,70 " stroke="#000000"/>
  <polygon fill="none" points="321,130 326,140 316,140 316,140 " stroke="black"/>
  <polyline fill="none" points="321,170 321,156 321,156 321,140 " stroke="#000000"/>
  <polygon fill="none" points="321,200 326,210 316,210 316,210 " stroke="black"/>
  <polyline fill="none" points="321,240 321,226 321,226 321,210 " stroke="#000000"/>
  <polygon fill="none" points="321,270 326,280 316,280 316,280 " stroke="black"/>
  <polyline fill="none" points="321,310 321,296 321,296 321,280 " stroke="#000000"/>
</svg>
