<?xml version='1.0' encoding='UTF-8'?>
<svg contentScriptType="text/ecmascript" xmlns:xi="http://www.w3.org/2001/XInclude" width="553" xmlns:xlink="http://www.w3.org/1999/xlink" zoomAndPan="magnify" contentStyleType="text/css" viewBox="0 0 553 265" height="265" preserveAspectRatio="none" xmlns="http://www.w3.org/2000/svg" version="1.0">
  <defs>
    <filter xlink:actuate="onLoad" xlink:type="simple" id="blur" xlink:show="other" xmlns:xlink="http://www.w3.org/1999/xlink">
      <feGaussianBlur result="blur" stdDeviation="3" in="SourceGraphic"/>
    </filter>
    <radialGradient xmlns:xlink="http://www.w3.org/1999/xlink" xlink:type="simple" xlink:actuate="onLoad" id="grad1" xlink:show="other" fx="30%" fy="30%">
      <stop stop-color="#fff" offset="0%"/>
      <stop stop-color="#99abc6" offset="100%"/>
    </radialGradient>
  </defs>
  <rect fill="#ffffff" x="0" width="553" height="265" y="0" stroke="#ffffff"/>
  <rect x="23" y="23" fill="dimgray" width="120" filter="url(#blur)" height="40" stroke="dimgray"/>
  <rect fill="#ffc800" x="20" width="120" height="40" y="20" stroke="#000000"/>
  <text fill="#000000" x="57" y="38" style="font-size:8;font-family:Helvetica" color="black">«interface»</text>
  <text fill="#000000" x="43" y="48" style="font-size:8;font-family:Helvetica;font-weight:bold" color="black">Comparable&lt;E&gt;</text>
  <rect x="219" y="28" fill="dimgray" width="120" filter="url(#blur)" height="30" stroke="dimgray"/>
  <rect fill="#ffffe0" x="216" width="120" height="30" y="25" stroke="#000000"/>
  <text fill="#000000" x="261" y="43" style="font-size:8;font-family:Helvetica;font-weight:bold" color="black">Object</text>
  <rect x="416" y="23" fill="dimgray" width="120" filter="url(#blur)" height="40" stroke="dimgray"/>
  <rect fill="#ffc800" x="413" width="120" height="40" y="20" stroke="#000000"/>
  <text fill="#000000" x="450" y="38" style="font-size:8;font-family:Helvetica" color="black">«interface»</text>
  <text fill="#000000" x="446" y="48" style="font-size:8;font-family:Helvetica;font-weight:bold" color="black">Serializable</text>
  <rect x="183" y="113" fill="dimgray" width="135" filter="url(#blur)" height="30" stroke="dimgray"/>
  <rect fill="#ffffe0" x="180" width="135" height="30" y="110" stroke="#000000"/>
  <text fill="#000000" x="190" y="128" style="font-size:8;font-family:Helvetica;font-weight:bold" color="black">Enum&lt;NotificationType&gt;</text>
  <rect x="260" y="108" fill="dimgray" width="116" filter="url(#blur)" height="10" stroke="dimgray"/>
  <rect x="257" y="105" fill="#ffffe0" width="116" stroke-dasharray="5 3" height="10" stroke="#000000"/>
  <text fill="#000000" x="267" y="113" style="font-size:8;font-family:Helvetica" color="black">E: E extends Enum&lt;E&gt;</text>
  <rect x="184" y="183" fill="dimgray" width="190" filter="url(#blur)" height="65" stroke="dimgray"/>
  <rect fill="#ffffe0" x="181" width="190" height="65" y="180" stroke="#000000"/>
  <text fill="#000000" x="238" y="198" style="font-size:8;font-family:Helvetica;font-weight:bold" color="black">NotificationType</text>
  <line y2="207" stroke-width="1" x1="181" x2="371" stroke="black" y1="207"/>
  <text fill="#000000" x="191" y="222" style="font-size:8;font-family:Helvetica" color="black">+ values(): NotificationType[]</text>
  <text fill="#000000" x="191" y="232" style="font-size:8;font-family:Helvetica" color="black">+ valueOf(name: String): NotificationType</text>
  <polygon fill="none" points="276,55 281,65 271,65 271,65 " stroke="black"/>
  <polyline fill="none" points="276,105 276,88 276,88 276,65 " stroke="#000000"/>
  <polygon fill="none" points="80,60 85,70 75,70 75,70 " stroke="black"/>
  <polyline fill="none" stroke-dasharray="5, 5" points="266,100 266,80 80,80 80,70 " stroke="#000000"/>
  <polygon fill="none" points="473,60 478,70 468,70 468,70 " stroke="black"/>
  <polyline fill="none" stroke-dasharray="5, 5" points="286,100 286,80 473,80 473,70 " stroke="#000000"/>
  <polygon fill="none" points="276,140 281,150 271,150 271,150 " stroke="black"/>
  <polyline fill="none" points="276,180 276,166 276,166 276,150 " stroke="#000000"/>
</svg>
