<?xml version='1.0' encoding='UTF-8'?>
<svg contentScriptType="text/ecmascript" xmlns:xi="http://www.w3.org/2001/XInclude" width="275" xmlns:xlink="http://www.w3.org/1999/xlink" zoomAndPan="magnify" contentStyleType="text/css" viewBox="0 0 275 275" height="275" preserveAspectRatio="none" xmlns="http://www.w3.org/2000/svg" version="1.0">
  <defs>
    <filter xlink:actuate="onLoad" xlink:type="simple" id="blur" xlink:show="other" xmlns:xlink="http://www.w3.org/1999/xlink">
      <feGaussianBlur result="blur" stdDeviation="3" in="SourceGraphic"/>
    </filter>
    <radialGradient xmlns:xlink="http://www.w3.org/1999/xlink" xlink:type="simple" xlink:actuate="onLoad" id="grad1" xlink:show="other" fx="30%" fy="30%">
      <stop stop-color="#fff" offset="0%"/>
      <stop stop-color="#99abc6" offset="100%"/>
    </radialGradient>
  </defs>
  <rect fill="#ffffff" x="0" width="275" height="275" y="0" stroke="#ffffff"/>
  <rect x="80" y="23" fill="dimgray" width="120" filter="url(#blur)" height="30" stroke="dimgray"/>
  <rect fill="#ffffe0" x="77" width="120" height="30" y="20" stroke="#000000"/>
  <text fill="#000000" x="122" y="38" style="font-size:8;font-family:Helvetica;font-weight:bold" color="black">Object</text>
  <rect x="23" y="113" fill="dimgray" width="177" filter="url(#blur)" height="30" stroke="dimgray"/>
  <rect fill="#ffffe0" x="20" width="177" height="30" y="110" stroke="#000000"/>
  <text fill="#000000" x="30" y="128" style="font-size:8;font-family:Helvetica;font-weight:bold" color="black">XmlAdapter&lt;Node, List&lt;String&gt;&gt;</text>
  <rect x="142" y="103" fill="dimgray" width="116" filter="url(#blur)" height="20" stroke="dimgray"/>
  <rect x="139" y="100" fill="#ffffe0" width="116" stroke-dasharray="5 3" height="20" stroke="#000000"/>
  <text fill="#000000" x="149" y="108" style="font-size:8;font-family:Helvetica" color="black">ValueType: ValueType</text>
  <text fill="#000000" x="149" y="116" style="font-size:8;font-family:Helvetica" color="black">BoundType: BoundType</text>
  <rect x="57" y="183" fill="dimgray" width="166" filter="url(#blur)" height="75" stroke="dimgray"/>
  <rect fill="#ffffe0" x="54" width="166" height="75" y="180" stroke="#000000"/>
  <text fill="#000000" x="99" y="198" style="font-size:8;font-family:Helvetica;font-weight:bold" color="black">ToStringAdapter</text>
  <line y2="207" stroke-width="1" x1="54" x2="220" stroke="black" y1="207"/>
  <text fill="#000000" x="64" y="222" style="font-size:8;font-family:Helvetica" color="black">+ ToStringAdapter()</text>
  <text fill="#000000" x="64" y="232" style="font-size:8;font-family:Helvetica" color="black">+ unmarshal(v: Node): List&lt;String&gt;</text>
  <text fill="#000000" x="64" y="242" style="font-size:8;font-family:Helvetica" color="black">+ marshal(v: List&lt;String&gt;): Node</text>
  <polygon fill="none" points="137,50 142,60 132,60 132,60 " stroke="black"/>
  <polyline fill="none" points="137,110 137,90 137,90 137,60 " stroke="#000000"/>
  <polygon fill="none" points="137,140 142,150 132,150 132,150 " stroke="black"/>
  <polyline fill="none" points="137,180 137,166 137,166 137,150 " stroke="#000000"/>
</svg>
