<?xml version='1.0' encoding='UTF-8'?>
<svg contentScriptType="text/ecmascript" xmlns:xi="http://www.w3.org/2001/XInclude" width="625" xmlns:xlink="http://www.w3.org/1999/xlink" zoomAndPan="magnify" contentStyleType="text/css" viewBox="0 0 625 325" height="325" preserveAspectRatio="none" xmlns="http://www.w3.org/2000/svg" version="1.0">
  <defs>
    <filter xlink:actuate="onLoad" xlink:type="simple" id="blur" xlink:show="other" xmlns:xlink="http://www.w3.org/1999/xlink">
      <feGaussianBlur result="blur" stdDeviation="3" in="SourceGraphic"/>
    </filter>
    <radialGradient xmlns:xlink="http://www.w3.org/1999/xlink" xlink:type="simple" xlink:actuate="onLoad" id="grad1" xlink:show="other" fx="30%" fy="30%">
      <stop stop-color="#fff" offset="0%"/>
      <stop stop-color="#99abc6" offset="100%"/>
    </radialGradient>
  </defs>
  <rect fill="#ffffff" x="0" width="625" height="325" y="0" stroke="#ffffff"/>
  <rect x="23" y="23" fill="dimgray" width="120" filter="url(#blur)" height="40" stroke="dimgray"/>
  <rect fill="#ffc800" x="20" width="120" height="40" y="20" stroke="#000000"/>
  <text fill="#000000" x="57" y="38" style="font-size:8;font-family:Helvetica" color="black">«interface»</text>
  <text fill="#000000" x="43" y="48" style="font-size:8;font-family:Helvetica;font-weight:bold" color="black">Comparable&lt;E&gt;</text>
  <rect x="255" y="28" fill="dimgray" width="120" filter="url(#blur)" height="30" stroke="dimgray"/>
  <rect fill="#ffffe0" x="252" width="120" height="30" y="25" stroke="#000000"/>
  <text fill="#000000" x="297" y="43" style="font-size:8;font-family:Helvetica;font-weight:bold" color="black">Object</text>
  <rect x="488" y="23" fill="dimgray" width="120" filter="url(#blur)" height="40" stroke="dimgray"/>
  <rect fill="#ffc800" x="485" width="120" height="40" y="20" stroke="#000000"/>
  <text fill="#000000" x="522" y="38" style="font-size:8;font-family:Helvetica" color="black">«interface»</text>
  <text fill="#000000" x="518" y="48" style="font-size:8;font-family:Helvetica;font-weight:bold" color="black">Serializable</text>
  <rect x="218" y="113" fill="dimgray" width="136" filter="url(#blur)" height="30" stroke="dimgray"/>
  <rect fill="#ffffe0" x="215" width="136" height="30" y="110" stroke="#000000"/>
  <text fill="#000000" x="225" y="128" style="font-size:8;font-family:Helvetica;font-weight:bold" color="black">Enum&lt;EbMS3ErrorCode&gt;</text>
  <rect x="296" y="108" fill="dimgray" width="116" filter="url(#blur)" height="10" stroke="dimgray"/>
  <rect x="293" y="105" fill="#ffffe0" width="116" stroke-dasharray="5 3" height="10" stroke="#000000"/>
  <text fill="#000000" x="303" y="113" style="font-size:8;font-family:Helvetica" color="black">E: E extends Enum&lt;E&gt;</text>
  <rect x="183" y="183" fill="dimgray" width="265" filter="url(#blur)" height="125" stroke="dimgray"/>
  <rect fill="#ffffe0" x="180" width="265" height="125" y="180" stroke="#000000"/>
  <text fill="#000000" x="274" y="198" style="font-size:8;font-family:Helvetica;font-weight:bold" color="black">EbMS3ErrorCode</text>
  <line y2="207" stroke-width="1" x1="180" x2="445" stroke="black" y1="207"/>
  <text fill="#000000" x="190" y="222" style="font-size:8;font-family:Helvetica" color="black">+ values(): EbMS3ErrorCode[]</text>
  <text fill="#000000" x="190" y="232" style="font-size:8;font-family:Helvetica" color="black">+ valueOf(name: String): EbMS3ErrorCode</text>
  <text fill="#000000" x="190" y="242" style="font-size:8;font-family:Helvetica" color="black">+ findErrorCodeBy(originErrorCode: String): EbMS3ErrorCode</text>
  <text fill="#000000" x="190" y="252" style="font-size:8;font-family:Helvetica" color="black">+ getCode(): OriginErrorCode</text>
  <text fill="#000000" x="190" y="262" style="font-size:8;font-family:Helvetica" color="black">+ getShortDescription(): String</text>
  <text fill="#000000" x="190" y="272" style="font-size:8;font-family:Helvetica" color="black">+ getSeverity(): String</text>
  <text fill="#000000" x="190" y="282" style="font-size:8;font-family:Helvetica" color="black">+ getCategory(): Categories</text>
  <text fill="#000000" x="190" y="292" style="font-size:8;font-family:Helvetica" color="black">+ toString(): String</text>
  <polygon fill="none" points="312,55 317,65 307,65 307,65 " stroke="black"/>
  <polyline fill="none" points="312,105 312,88 312,88 312,65 " stroke="#000000"/>
  <polygon fill="none" points="80,60 85,70 75,70 75,70 " stroke="black"/>
  <polyline fill="none" stroke-dasharray="5, 5" points="302,100 302,80 80,80 80,70 " stroke="#000000"/>
  <polygon fill="none" points="545,60 550,70 540,70 540,70 " stroke="black"/>
  <polyline fill="none" stroke-dasharray="5, 5" points="322,100 322,80 545,80 545,70 " stroke="#000000"/>
  <polygon fill="none" points="312,140 317,150 307,150 307,150 " stroke="black"/>
  <polyline fill="none" points="312,180 312,166 312,166 312,150 " stroke="#000000"/>
</svg>
