<?xml version='1.0' encoding='UTF-8'?>
<svg contentScriptType="text/ecmascript" xmlns:xi="http://www.w3.org/2001/XInclude" width="552" xmlns:xlink="http://www.w3.org/1999/xlink" zoomAndPan="magnify" contentStyleType="text/css" viewBox="0 0 552 285" height="285" preserveAspectRatio="none" xmlns="http://www.w3.org/2000/svg" version="1.0">
  <defs>
    <filter xlink:actuate="onLoad" xlink:type="simple" id="blur" xlink:show="other" xmlns:xlink="http://www.w3.org/1999/xlink">
      <feGaussianBlur result="blur" stdDeviation="3" in="SourceGraphic"/>
    </filter>
    <radialGradient xmlns:xlink="http://www.w3.org/1999/xlink" xlink:type="simple" xlink:actuate="onLoad" id="grad1" xlink:show="other" fx="30%" fy="30%">
      <stop stop-color="#fff" offset="0%"/>
      <stop stop-color="#99abc6" offset="100%"/>
    </radialGradient>
  </defs>
  <rect fill="#ffffff" x="0" width="552" height="285" y="0" stroke="#ffffff"/>
  <rect x="23" y="23" fill="dimgray" width="120" filter="url(#blur)" height="40" stroke="dimgray"/>
  <rect fill="#ffc800" x="20" width="120" height="40" y="20" stroke="#000000"/>
  <text fill="#000000" x="57" y="38" style="font-size:8;font-family:Helvetica" color="black">«interface»</text>
  <text fill="#000000" x="43" y="48" style="font-size:8;font-family:Helvetica;font-weight:bold" color="black">Comparable&lt;E&gt;</text>
  <rect x="219" y="28" fill="dimgray" width="120" filter="url(#blur)" height="30" stroke="dimgray"/>
  <rect fill="#ffffe0" x="216" width="120" height="30" y="25" stroke="#000000"/>
  <text fill="#000000" x="261" y="43" style="font-size:8;font-family:Helvetica;font-weight:bold" color="black">Object</text>
  <rect x="415" y="23" fill="dimgray" width="120" filter="url(#blur)" height="40" stroke="dimgray"/>
  <rect fill="#ffc800" x="412" width="120" height="40" y="20" stroke="#000000"/>
  <text fill="#000000" x="449" y="38" style="font-size:8;font-family:Helvetica" color="black">«interface»</text>
  <text fill="#000000" x="445" y="48" style="font-size:8;font-family:Helvetica;font-weight:bold" color="black">Serializable</text>
  <rect x="183" y="113" fill="dimgray" width="134" filter="url(#blur)" height="30" stroke="dimgray"/>
  <rect fill="#ffffe0" x="180" width="134" height="30" y="110" stroke="#000000"/>
  <text fill="#000000" x="190" y="128" style="font-size:8;font-family:Helvetica;font-weight:bold" color="black">Enum&lt;OriginErrorCode&gt;</text>
  <rect x="259" y="108" fill="dimgray" width="116" filter="url(#blur)" height="10" stroke="dimgray"/>
  <rect x="256" y="105" fill="#ffffe0" width="116" stroke-dasharray="5 3" height="10" stroke="#000000"/>
  <text fill="#000000" x="266" y="113" style="font-size:8;font-family:Helvetica" color="black">E: E extends Enum&lt;E&gt;</text>
  <rect x="185" y="183" fill="dimgray" width="188" filter="url(#blur)" height="85" stroke="dimgray"/>
  <rect fill="#ffffe0" x="182" width="188" height="85" y="180" stroke="#000000"/>
  <text fill="#000000" x="238" y="198" style="font-size:8;font-family:Helvetica;font-weight:bold" color="black">OriginErrorCode</text>
  <line y2="207" stroke-width="1" x1="182" x2="370" stroke="black" y1="207"/>
  <text fill="#000000" x="192" y="222" style="font-size:8;font-family:Helvetica" color="black">+ values(): OriginErrorCode[]</text>
  <text fill="#000000" x="192" y="232" style="font-size:8;font-family:Helvetica" color="black">+ valueOf(name: String): OriginErrorCode</text>
  <text fill="#000000" x="192" y="242" style="font-size:8;font-family:Helvetica" color="black">+ getErrorCode(): ErrorCode</text>
  <text fill="#000000" x="192" y="252" style="font-size:8;font-family:Helvetica" color="black">+ getOrigin(): String</text>
  <polygon fill="none" points="276,55 281,65 271,65 271,65 " stroke="black"/>
  <polyline fill="none" points="276,105 276,88 276,88 276,65 " stroke="#000000"/>
  <polygon fill="none" points="80,60 85,70 75,70 75,70 " stroke="black"/>
  <polyline fill="none" stroke-dasharray="5, 5" points="266,100 266,80 80,80 80,70 " stroke="#000000"/>
  <polygon fill="none" points="472,60 477,70 467,70 467,70 " stroke="black"/>
  <polyline fill="none" stroke-dasharray="5, 5" points="286,100 286,80 472,80 472,70 " stroke="#000000"/>
  <polygon fill="none" points="276,140 281,150 271,150 271,150 " stroke="black"/>
  <polyline fill="none" points="276,180 276,166 276,166 276,150 " stroke="#000000"/>
</svg>
